<svg width="64" height="64" viewBox="0 0 64 64" fill="none" xmlns="http://www.w3.org/2000/svg">
<g clip-path="url(#clip0_13231_251185)">
<rect width="64" height="64" rx="20" fill="white"/>
<rect width="64" height="64" fill="#181818"/>
<circle cx="45.4855" cy="33.3966" r="0.469848" stroke="#4D4D4D" stroke-width="0.375"/>
<circle cx="32.3292" cy="33.3966" r="0.469848" stroke="#4D4D4D" stroke-width="0.375"/>
<circle cx="64.2823" cy="33.3966" r="0.469848" stroke="#4D4D4D" stroke-width="0.375"/>
<circle cx="28.5714" cy="33.3966" r="0.469848" stroke="#4D4D4D" stroke-width="0.375"/>
<circle cx="41.7277" cy="33.3966" r="0.469848" stroke="#4D4D4D" stroke-width="0.375"/>
<circle cx="36.087" cy="33.3966" r="0.469848" stroke="#4D4D4D" stroke-width="0.375"/>
<circle cx="56.7589" cy="33.3966" r="0.469848" stroke="#4D4D4D" stroke-width="0.375"/>
<circle cx="9.77454" cy="48.4347" r="0.469848" stroke="#4D4D4D" stroke-width="0.375"/>
<circle cx="13.5363" cy="48.4347" r="0.469848" stroke="#4D4D4D" stroke-width="0.375"/>
<circle cx="60.5206" cy="18.3634" r="0.469848" stroke="#4D4D4D" stroke-width="0.375"/>
<circle cx="9.77454" cy="18.3634" r="0.469848" stroke="#4D4D4D" stroke-width="0.375"/>
<circle cx="45.4855" cy="18.3634" r="0.469848" stroke="#4D4D4D" stroke-width="0.375"/>
<circle cx="17.2941" cy="18.3634" r="0.469848" stroke="#4D4D4D" stroke-width="0.375"/>
<circle cx="2.25891" cy="18.3634" r="0.469848" stroke="#4D4D4D" stroke-width="0.375"/>
<circle cx="53.005" cy="18.3634" r="0.469848" stroke="#4D4D4D" stroke-width="0.375"/>
<circle cx="64.2823" cy="18.3634" r="0.469848" stroke="#4D4D4D" stroke-width="0.375"/>
<circle cx="49.2433" cy="18.3634" r="0.469848" stroke="#4D4D4D" stroke-width="0.375"/>
<circle cx="41.7277" cy="18.3634" r="0.469848" stroke="#4D4D4D" stroke-width="0.375"/>
<circle cx="36.087" cy="18.3634" r="0.469848" stroke="#4D4D4D" stroke-width="0.375"/>
<circle cx="56.7589" cy="18.3634" r="0.469848" stroke="#4D4D4D" stroke-width="0.375"/>
<circle cx="60.5206" cy="25.88" r="0.469848" stroke="#4D4D4D" stroke-width="0.375"/>
<circle cx="45.4855" cy="25.88" r="0.469848" stroke="#4D4D4D" stroke-width="0.375"/>
<circle cx="2.25891" cy="25.88" r="0.469848" stroke="#4D4D4D" stroke-width="0.375"/>
<circle cx="32.3292" cy="25.88" r="0.469848" stroke="#4D4D4D" stroke-width="0.375"/>
<circle cx="53.005" cy="25.88" r="0.469848" stroke="#4D4D4D" stroke-width="0.375"/>
<circle cx="64.2823" cy="25.88" r="0.469848" stroke="#4D4D4D" stroke-width="0.375"/>
<circle cx="49.2433" cy="25.88" r="0.469848" stroke="#4D4D4D" stroke-width="0.375"/>
<circle cx="41.7277" cy="25.88" r="0.469848" stroke="#4D4D4D" stroke-width="0.375"/>
<circle cx="6.01672" cy="25.88" r="0.469848" stroke="#4D4D4D" stroke-width="0.375"/>
<circle cx="36.087" cy="25.88" r="0.469848" stroke="#4D4D4D" stroke-width="0.375"/>
<circle cx="56.7589" cy="25.88" r="0.469848" stroke="#4D4D4D" stroke-width="0.375"/>
<circle cx="9.77454" cy="40.9152" r="0.469848" stroke="#4D4D4D" stroke-width="0.375"/>
<circle cx="17.2941" cy="40.9152" r="0.469848" stroke="#4D4D4D" stroke-width="0.375"/>
<circle cx="13.5363" cy="40.9152" r="0.469848" stroke="#4D4D4D" stroke-width="0.375"/>
<circle cx="41.7277" cy="40.9152" r="0.469848" stroke="#4D4D4D" stroke-width="0.375"/>
<circle cx="36.087" cy="40.9152" r="0.469848" stroke="#4D4D4D" stroke-width="0.375"/>
<circle cx="9.77454" cy="10.8448" r="0.469848" stroke="#4D4D4D" stroke-width="0.375"/>
<circle cx="24.8136" cy="10.8448" r="0.469848" stroke="#4D4D4D" stroke-width="0.375"/>
<circle cx="17.2941" cy="10.8448" r="0.469848" stroke="#4D4D4D" stroke-width="0.375"/>
<circle cx="13.5363" cy="10.8448" r="0.469848" stroke="#4D4D4D" stroke-width="0.375"/>
<circle cx="21.0519" cy="10.8448" r="0.469848" stroke="#4D4D4D" stroke-width="0.375"/>
<circle cx="6.01672" cy="10.8448" r="0.469848" stroke="#4D4D4D" stroke-width="0.375"/>
<circle cx="60.5206" cy="29.6398" r="0.469848" stroke="#4D4D4D" stroke-width="0.375"/>
<circle cx="45.4855" cy="29.6398" r="0.469848" stroke="#4D4D4D" stroke-width="0.375"/>
<circle cx="32.3292" cy="29.6398" r="0.469848" stroke="#4D4D4D" stroke-width="0.375"/>
<circle cx="53.005" cy="29.6398" r="0.469848" stroke="#4D4D4D" stroke-width="0.375"/>
<circle cx="64.2823" cy="29.6398" r="0.469848" stroke="#4D4D4D" stroke-width="0.375"/>
<circle cx="28.5714" cy="29.6398" r="0.469848" stroke="#4D4D4D" stroke-width="0.375"/>
<circle cx="49.2433" cy="29.6398" r="0.469848" stroke="#4D4D4D" stroke-width="0.375"/>
<circle cx="41.7277" cy="29.6398" r="0.469848" stroke="#4D4D4D" stroke-width="0.375"/>
<circle cx="6.01672" cy="29.6398" r="0.469848" stroke="#4D4D4D" stroke-width="0.375"/>
<circle cx="36.087" cy="29.6398" r="0.469848" stroke="#4D4D4D" stroke-width="0.375"/>
<circle cx="56.7589" cy="29.6398" r="0.469848" stroke="#4D4D4D" stroke-width="0.375"/>
<circle cx="9.77454" cy="44.673" r="0.469848" stroke="#4D4D4D" stroke-width="0.375"/>
<circle cx="47.3605" cy="44.673" r="0.469848" stroke="#4D4D4D" stroke-width="0.375"/>
<circle cx="17.2941" cy="44.673" r="0.469848" stroke="#4D4D4D" stroke-width="0.375"/>
<circle cx="13.5363" cy="44.673" r="0.469848" stroke="#4D4D4D" stroke-width="0.375"/>
<circle cx="41.7277" cy="44.673" r="0.469848" stroke="#4D4D4D" stroke-width="0.375"/>
<circle cx="36.087" cy="44.673" r="0.469848" stroke="#4D4D4D" stroke-width="0.375"/>
<circle cx="60.5206" cy="14.6036" r="0.469848" stroke="#4D4D4D" stroke-width="0.375"/>
<circle cx="24.8136" cy="14.6036" r="0.469848" stroke="#4D4D4D" stroke-width="0.375"/>
<circle cx="17.2941" cy="14.6036" r="0.469848" stroke="#4D4D4D" stroke-width="0.375"/>
<circle cx="2.25891" cy="14.6036" r="0.469848" stroke="#4D4D4D" stroke-width="0.375"/>
<circle cx="53.005" cy="14.6036" r="0.469848" stroke="#4D4D4D" stroke-width="0.375"/>
<circle cx="64.2823" cy="14.6036" r="0.469848" stroke="#4D4D4D" stroke-width="0.375"/>
<circle cx="49.2433" cy="14.6036" r="0.469848" stroke="#4D4D4D" stroke-width="0.375"/>
<circle cx="21.0519" cy="14.6036" r="0.469848" stroke="#4D4D4D" stroke-width="0.375"/>
<circle cx="41.7277" cy="14.6036" r="0.469848" stroke="#4D4D4D" stroke-width="0.375"/>
<circle cx="43.6105" cy="14.6036" r="0.469848" stroke="#4D4D4D" stroke-width="0.375"/>
<circle cx="6.01672" cy="14.6036" r="0.469848" stroke="#4D4D4D" stroke-width="0.375"/>
<circle cx="56.7589" cy="14.6036" r="0.469848" stroke="#4D4D4D" stroke-width="0.375"/>
<circle cx="9.77454" cy="52.1915" r="0.469848" stroke="#4D4D4D" stroke-width="0.375"/>
<circle cx="60.5206" cy="22.1202" r="0.469848" stroke="#4D4D4D" stroke-width="0.375"/>
<circle cx="9.77454" cy="22.1202" r="0.469848" stroke="#4D4D4D" stroke-width="0.375"/>
<circle cx="45.4855" cy="22.1202" r="0.469848" stroke="#4D4D4D" stroke-width="0.375"/>
<circle cx="2.25891" cy="22.1202" r="0.469848" stroke="#4D4D4D" stroke-width="0.375"/>
<circle cx="32.3292" cy="22.1202" r="0.469848" stroke="#4D4D4D" stroke-width="0.375"/>
<circle cx="53.005" cy="22.1202" r="0.469848" stroke="#4D4D4D" stroke-width="0.375"/>
<circle cx="64.2823" cy="22.1202" r="0.469848" stroke="#4D4D4D" stroke-width="0.375"/>
<circle cx="13.5363" cy="22.1202" r="0.469848" stroke="#4D4D4D" stroke-width="0.375"/>
<circle cx="49.2433" cy="22.1202" r="0.469848" stroke="#4D4D4D" stroke-width="0.375"/>
<circle cx="41.7277" cy="22.1202" r="0.469848" stroke="#4D4D4D" stroke-width="0.375"/>
<circle cx="6.01672" cy="22.1202" r="0.469848" stroke="#4D4D4D" stroke-width="0.375"/>
<circle cx="36.087" cy="22.1202" r="0.469848" stroke="#4D4D4D" stroke-width="0.375"/>
<circle cx="56.7589" cy="22.1202" r="0.469848" stroke="#4D4D4D" stroke-width="0.375"/>
<circle cx="9.77454" cy="37.1554" r="0.469848" stroke="#4D4D4D" stroke-width="0.375"/>
<circle cx="45.4855" cy="37.1554" r="0.469848" stroke="#4D4D4D" stroke-width="0.375"/>
<circle cx="64.2823" cy="37.1554" r="0.469848" stroke="#4D4D4D" stroke-width="0.375"/>
<circle cx="13.5363" cy="37.1554" r="0.469848" stroke="#4D4D4D" stroke-width="0.375"/>
<circle cx="41.7277" cy="37.1554" r="0.469848" stroke="#4D4D4D" stroke-width="0.375"/>
<circle cx="36.087" cy="37.1554" r="0.469848" stroke="#4D4D4D" stroke-width="0.375"/>
<circle cx="26.6925" cy="33.3966" r="0.469848" stroke="#4D4D4D" stroke-width="0.375"/>
<circle cx="39.8448" cy="33.3966" r="0.469848" stroke="#4D4D4D" stroke-width="0.375"/>
<circle cx="4.13782" cy="33.3966" r="0.469848" stroke="#4D4D4D" stroke-width="0.375"/>
<circle cx="34.2081" cy="33.3966" r="0.469848" stroke="#4D4D4D" stroke-width="0.375"/>
<circle cx="30.4542" cy="33.3966" r="0.469848" stroke="#4D4D4D" stroke-width="0.375"/>
<circle cx="43.6105" cy="33.3966" r="0.469848" stroke="#4D4D4D" stroke-width="0.375"/>
<circle cx="37.9698" cy="33.3966" r="0.469848" stroke="#4D4D4D" stroke-width="0.375"/>
<circle cx="11.6573" cy="48.4347" r="0.469848" stroke="#4D4D4D" stroke-width="0.375"/>
<circle cx="39.8448" cy="48.4347" r="0.469848" stroke="#4D4D4D" stroke-width="0.375"/>
<circle cx="15.4152" cy="48.4347" r="0.469848" stroke="#4D4D4D" stroke-width="0.375"/>
<circle cx="37.9698" cy="48.4347" r="0.469848" stroke="#4D4D4D" stroke-width="0.375"/>
<circle cx="62.3995" cy="18.3634" r="0.469848" stroke="#4D4D4D" stroke-width="0.375"/>
<circle cx="11.6573" cy="18.3634" r="0.469848" stroke="#4D4D4D" stroke-width="0.375"/>
<circle cx="47.3644" cy="18.3634" r="0.469848" stroke="#4D4D4D" stroke-width="0.375"/>
<circle cx="39.8448" cy="18.3634" r="0.469848" stroke="#4D4D4D" stroke-width="0.375"/>
<circle cx="34.2081" cy="18.3634" r="0.469848" stroke="#4D4D4D" stroke-width="0.375"/>
<circle cx="54.8839" cy="18.3634" r="0.469848" stroke="#4D4D4D" stroke-width="0.375"/>
<circle cx="0.380004" cy="18.3634" r="0.469848" stroke="#4D4D4D" stroke-width="0.375"/>
<circle cx="30.4542" cy="18.3634" r="0.469848" stroke="#4D4D4D" stroke-width="0.375"/>
<circle cx="51.1183" cy="18.3634" r="0.469848" stroke="#4D4D4D" stroke-width="0.375"/>
<circle cx="43.6105" cy="18.3634" r="0.469848" stroke="#4D4D4D" stroke-width="0.375"/>
<circle cx="7.89563" cy="18.3634" r="0.469848" stroke="#4D4D4D" stroke-width="0.375"/>
<circle cx="58.6417" cy="18.3634" r="0.469848" stroke="#4D4D4D" stroke-width="0.375"/>
<circle cx="11.6573" cy="55.9503" r="0.469848" stroke="#4D4D4D" stroke-width="0.375"/>
<circle cx="9.77454" cy="55.9503" r="0.469848" stroke="#4D4D4D" stroke-width="0.375"/>
<circle cx="62.3995" cy="25.88" r="0.469848" stroke="#4D4D4D" stroke-width="0.375"/>
<circle cx="47.3644" cy="25.88" r="0.469848" stroke="#4D4D4D" stroke-width="0.375"/>
<circle cx="4.13782" cy="25.88" r="0.469848" stroke="#4D4D4D" stroke-width="0.375"/>
<circle cx="34.2081" cy="25.88" r="0.469848" stroke="#4D4D4D" stroke-width="0.375"/>
<circle cx="54.8839" cy="25.88" r="0.469848" stroke="#4D4D4D" stroke-width="0.375"/>
<circle cx="0.380004" cy="25.88" r="0.469848" stroke="#4D4D4D" stroke-width="0.375"/>
<circle cx="30.4542" cy="25.88" r="0.469848" stroke="#4D4D4D" stroke-width="0.375"/>
<circle cx="51.1183" cy="25.88" r="0.469848" stroke="#4D4D4D" stroke-width="0.375"/>
<circle cx="43.6105" cy="25.88" r="0.469848" stroke="#4D4D4D" stroke-width="0.375"/>
<circle cx="7.89563" cy="25.88" r="0.469848" stroke="#4D4D4D" stroke-width="0.375"/>
<circle cx="58.6417" cy="25.88" r="0.469848" stroke="#4D4D4D" stroke-width="0.375"/>
<circle cx="11.6573" cy="40.9152" r="0.469848" stroke="#4D4D4D" stroke-width="0.375"/>
<circle cx="19.1769" cy="40.9152" r="0.469848" stroke="#4D4D4D" stroke-width="0.375"/>
<circle cx="39.8448" cy="40.9152" r="0.469848" stroke="#4D4D4D" stroke-width="0.375"/>
<circle cx="15.4152" cy="40.9152" r="0.469848" stroke="#4D4D4D" stroke-width="0.375"/>
<circle cx="43.6105" cy="40.9152" r="0.469848" stroke="#4D4D4D" stroke-width="0.375"/>
<circle cx="7.89563" cy="40.9152" r="0.469848" stroke="#4D4D4D" stroke-width="0.375"/>
<circle cx="37.9698" cy="40.9152" r="0.469848" stroke="#4D4D4D" stroke-width="0.375"/>
<circle cx="62.3995" cy="10.8448" r="0.469848" stroke="#4D4D4D" stroke-width="0.375"/>
<circle cx="26.6925" cy="10.8448" r="0.469848" stroke="#4D4D4D" stroke-width="0.375"/>
<circle cx="19.1769" cy="10.8448" r="0.469848" stroke="#4D4D4D" stroke-width="0.375"/>
<circle cx="4.13782" cy="10.8448" r="0.469848" stroke="#4D4D4D" stroke-width="0.375"/>
<circle cx="15.4152" cy="10.8448" r="0.469848" stroke="#4D4D4D" stroke-width="0.375"/>
<circle cx="22.9308" cy="10.8448" r="0.469848" stroke="#4D4D4D" stroke-width="0.375"/>
<circle cx="7.89563" cy="10.8448" r="0.469848" stroke="#4D4D4D" stroke-width="0.375"/>
<circle cx="62.3995" cy="29.6398" r="0.469848" stroke="#4D4D4D" stroke-width="0.375"/>
<circle cx="26.6925" cy="29.6398" r="0.469848" stroke="#4D4D4D" stroke-width="0.375"/>
<circle cx="47.3644" cy="29.6398" r="0.469848" stroke="#4D4D4D" stroke-width="0.375"/>
<circle cx="39.8448" cy="29.6398" r="0.469848" stroke="#4D4D4D" stroke-width="0.375"/>
<circle cx="34.2081" cy="29.6398" r="0.469848" stroke="#4D4D4D" stroke-width="0.375"/>
<circle cx="54.8839" cy="29.6398" r="0.469848" stroke="#4D4D4D" stroke-width="0.375"/>
<circle cx="0.380004" cy="29.6398" r="0.469848" stroke="#4D4D4D" stroke-width="0.375"/>
<circle cx="30.4542" cy="29.6398" r="0.469848" stroke="#4D4D4D" stroke-width="0.375"/>
<circle cx="51.1183" cy="29.6398" r="0.469848" stroke="#4D4D4D" stroke-width="0.375"/>
<circle cx="37.9698" cy="29.6398" r="0.469848" stroke="#4D4D4D" stroke-width="0.375"/>
<circle cx="58.6417" cy="29.6398" r="0.469848" stroke="#4D4D4D" stroke-width="0.375"/>
<circle cx="11.6573" cy="44.673" r="0.469848" stroke="#4D4D4D" stroke-width="0.375"/>
<circle cx="19.1769" cy="44.673" r="0.469848" stroke="#4D4D4D" stroke-width="0.375"/>
<circle cx="39.8448" cy="44.673" r="0.469848" stroke="#4D4D4D" stroke-width="0.375"/>
<circle cx="15.4152" cy="44.673" r="0.469848" stroke="#4D4D4D" stroke-width="0.375"/>
<circle cx="43.6105" cy="44.673" r="0.469848" stroke="#4D4D4D" stroke-width="0.375"/>
<circle cx="37.9698" cy="44.673" r="0.469848" stroke="#4D4D4D" stroke-width="0.375"/>
<circle cx="62.3995" cy="14.6036" r="0.469848" stroke="#4D4D4D" stroke-width="0.375"/>
<circle cx="19.1769" cy="14.6036" r="0.469848" stroke="#4D4D4D" stroke-width="0.375"/>
<circle cx="39.8448" cy="14.6036" r="0.469848" stroke="#4D4D4D" stroke-width="0.375"/>
<circle cx="4.13782" cy="14.6036" r="0.469848" stroke="#4D4D4D" stroke-width="0.375"/>
<circle cx="54.8839" cy="14.6036" r="0.469848" stroke="#4D4D4D" stroke-width="0.375"/>
<circle cx="15.4152" cy="14.6036" r="0.469848" stroke="#4D4D4D" stroke-width="0.375"/>
<circle cx="0.380004" cy="14.6036" r="0.469848" stroke="#4D4D4D" stroke-width="0.375"/>
<circle cx="51.1183" cy="14.6036" r="0.469848" stroke="#4D4D4D" stroke-width="0.375"/>
<circle cx="22.9308" cy="14.6036" r="0.469848" stroke="#4D4D4D" stroke-width="0.375"/>
<circle cx="7.89563" cy="14.6036" r="0.469848" stroke="#4D4D4D" stroke-width="0.375"/>
<circle cx="37.9698" cy="14.6036" r="0.469848" stroke="#4D4D4D" stroke-width="0.375"/>
<circle cx="58.6417" cy="14.6036" r="0.469848" stroke="#4D4D4D" stroke-width="0.375"/>
<circle cx="7.89563" cy="52.1915" r="0.469848" stroke="#4D4D4D" stroke-width="0.375"/>
<circle cx="7.89563" cy="50.3116" r="0.469848" stroke="#4D4D4D" stroke-width="0.375"/>
<circle cx="62.3995" cy="22.1202" r="0.469848" stroke="#4D4D4D" stroke-width="0.375"/>
<circle cx="11.6573" cy="22.1202" r="0.469848" stroke="#4D4D4D" stroke-width="0.375"/>
<circle cx="47.3644" cy="22.1202" r="0.469848" stroke="#4D4D4D" stroke-width="0.375"/>
<circle cx="39.8448" cy="22.1202" r="0.469848" stroke="#4D4D4D" stroke-width="0.375"/>
<circle cx="4.13782" cy="22.1202" r="0.469848" stroke="#4D4D4D" stroke-width="0.375"/>
<circle cx="34.2081" cy="22.1202" r="0.469848" stroke="#4D4D4D" stroke-width="0.375"/>
<circle cx="54.8839" cy="22.1202" r="0.469848" stroke="#4D4D4D" stroke-width="0.375"/>
<circle cx="15.4152" cy="22.1202" r="0.469848" stroke="#4D4D4D" stroke-width="0.375"/>
<circle cx="0.380004" cy="22.1202" r="0.469848" stroke="#4D4D4D" stroke-width="0.375"/>
<circle cx="30.4542" cy="22.1202" r="0.469848" stroke="#4D4D4D" stroke-width="0.375"/>
<circle cx="51.1183" cy="22.1202" r="0.469848" stroke="#4D4D4D" stroke-width="0.375"/>
<circle cx="43.6105" cy="22.1202" r="0.469848" stroke="#4D4D4D" stroke-width="0.375"/>
<circle cx="7.89563" cy="22.1202" r="0.469848" stroke="#4D4D4D" stroke-width="0.375"/>
<circle cx="37.9698" cy="22.1202" r="0.469848" stroke="#4D4D4D" stroke-width="0.375"/>
<circle cx="58.6417" cy="22.1202" r="0.469848" stroke="#4D4D4D" stroke-width="0.375"/>
<circle cx="62.3995" cy="37.1554" r="0.469848" stroke="#4D4D4D" stroke-width="0.375"/>
<circle cx="11.6573" cy="37.1554" r="0.469848" stroke="#4D4D4D" stroke-width="0.375"/>
<circle cx="39.8448" cy="37.1554" r="0.469848" stroke="#4D4D4D" stroke-width="0.375"/>
<circle cx="15.4152" cy="37.1554" r="0.469848" stroke="#4D4D4D" stroke-width="0.375"/>
<circle cx="43.6105" cy="37.1554" r="0.469848" stroke="#4D4D4D" stroke-width="0.375"/>
<circle cx="7.89563" cy="37.1554" r="0.469848" stroke="#4D4D4D" stroke-width="0.375"/>
<circle cx="37.9698" cy="37.1554" r="0.469848" stroke="#4D4D4D" stroke-width="0.375"/>
<circle cx="9.77454" cy="31.5197" r="0.469848" stroke="#4D4D4D" stroke-width="0.375"/>
<circle cx="45.4855" cy="31.5197" r="0.469848" stroke="#4D4D4D" stroke-width="0.375"/>
<circle cx="2.25891" cy="31.5197" r="0.469848" stroke="#4D4D4D" stroke-width="0.375"/>
<circle cx="32.3292" cy="31.5197" r="0.469848" stroke="#4D4D4D" stroke-width="0.375"/>
<circle cx="64.2823" cy="31.5197" r="0.469848" stroke="#4D4D4D" stroke-width="0.375"/>
<circle cx="28.5714" cy="31.5197" r="0.469848" stroke="#4D4D4D" stroke-width="0.375"/>
<circle cx="49.2433" cy="31.5197" r="0.469848" stroke="#4D4D4D" stroke-width="0.375"/>
<circle cx="41.7277" cy="31.5197" r="0.469848" stroke="#4D4D4D" stroke-width="0.375"/>
<circle cx="36.087" cy="31.5197" r="0.469848" stroke="#4D4D4D" stroke-width="0.375"/>
<circle cx="56.7589" cy="31.5197" r="0.469848" stroke="#4D4D4D" stroke-width="0.375"/>
<circle cx="9.77454" cy="46.5538" r="0.469848" stroke="#4D4D4D" stroke-width="0.375"/>
<circle cx="13.5363" cy="46.5538" r="0.469848" stroke="#4D4D4D" stroke-width="0.375"/>
<circle cx="41.7277" cy="46.5538" r="0.469848" stroke="#4D4D4D" stroke-width="0.375"/>
<circle cx="60.5206" cy="16.4835" r="0.469848" stroke="#4D4D4D" stroke-width="0.375"/>
<circle cx="9.77454" cy="16.4835" r="0.469848" stroke="#4D4D4D" stroke-width="0.375"/>
<circle cx="24.8136" cy="16.4835" r="0.469848" stroke="#4D4D4D" stroke-width="0.375"/>
<circle cx="45.4855" cy="16.4835" r="0.469848" stroke="#4D4D4D" stroke-width="0.375"/>
<circle cx="17.2941" cy="16.4835" r="0.469848" stroke="#4D4D4D" stroke-width="0.375"/>
<circle cx="2.25891" cy="16.4835" r="0.469848" stroke="#4D4D4D" stroke-width="0.375"/>
<circle cx="53.005" cy="16.4835" r="0.469848" stroke="#4D4D4D" stroke-width="0.375"/>
<circle cx="64.2823" cy="16.4835" r="0.469848" stroke="#4D4D4D" stroke-width="0.375"/>
<circle cx="49.2433" cy="16.4835" r="0.469848" stroke="#4D4D4D" stroke-width="0.375"/>
<circle cx="41.7277" cy="16.4835" r="0.469848" stroke="#4D4D4D" stroke-width="0.375"/>
<circle cx="6.01672" cy="16.4835" r="0.469848" stroke="#4D4D4D" stroke-width="0.375"/>
<circle cx="36.087" cy="16.4835" r="0.469848" stroke="#4D4D4D" stroke-width="0.375"/>
<circle cx="56.7589" cy="16.4835" r="0.469848" stroke="#4D4D4D" stroke-width="0.375"/>
<circle cx="9.77454" cy="54.0714" r="0.469848" stroke="#4D4D4D" stroke-width="0.375"/>
<circle cx="60.5206" cy="24.0011" r="0.469848" stroke="#4D4D4D" stroke-width="0.375"/>
<circle cx="45.4855" cy="24.0011" r="0.469848" stroke="#4D4D4D" stroke-width="0.375"/>
<circle cx="2.25891" cy="24.0011" r="0.469848" stroke="#4D4D4D" stroke-width="0.375"/>
<circle cx="32.3292" cy="24.0011" r="0.469848" stroke="#4D4D4D" stroke-width="0.375"/>
<circle cx="53.005" cy="24.0011" r="0.469848" stroke="#4D4D4D" stroke-width="0.375"/>
<circle cx="64.2823" cy="24.0011" r="0.469848" stroke="#4D4D4D" stroke-width="0.375"/>
<circle cx="28.5714" cy="24.0011" r="0.469848" stroke="#4D4D4D" stroke-width="0.375"/>
<circle cx="49.2433" cy="24.0011" r="0.469848" stroke="#4D4D4D" stroke-width="0.375"/>
<circle cx="41.7277" cy="24.0011" r="0.469848" stroke="#4D4D4D" stroke-width="0.375"/>
<circle cx="6.01672" cy="24.0011" r="0.469848" stroke="#4D4D4D" stroke-width="0.375"/>
<circle cx="36.087" cy="24.0011" r="0.469848" stroke="#4D4D4D" stroke-width="0.375"/>
<circle cx="56.7589" cy="24.0011" r="0.469848" stroke="#4D4D4D" stroke-width="0.375"/>
<circle cx="9.77454" cy="39.0353" r="0.469848" stroke="#4D4D4D" stroke-width="0.375"/>
<circle cx="17.2941" cy="39.0353" r="0.469848" stroke="#4D4D4D" stroke-width="0.375"/>
<circle cx="64.2823" cy="39.0353" r="0.469848" stroke="#4D4D4D" stroke-width="0.375"/>
<circle cx="13.5363" cy="39.0353" r="0.469848" stroke="#4D4D4D" stroke-width="0.375"/>
<circle cx="21.0519" cy="39.0353" r="0.469848" stroke="#4D4D4D" stroke-width="0.375"/>
<circle cx="41.7277" cy="39.0353" r="0.469848" stroke="#4D4D4D" stroke-width="0.375"/>
<circle cx="6.01672" cy="39.0353" r="0.469848" stroke="#4D4D4D" stroke-width="0.375"/>
<circle cx="36.087" cy="39.0353" r="0.469848" stroke="#4D4D4D" stroke-width="0.375"/>
<circle cx="60.5206" cy="27.7599" r="0.469848" stroke="#4D4D4D" stroke-width="0.375"/>
<circle cx="45.4855" cy="27.7599" r="0.469848" stroke="#4D4D4D" stroke-width="0.375"/>
<circle cx="2.25891" cy="27.7599" r="0.469848" stroke="#4D4D4D" stroke-width="0.375"/>
<circle cx="32.3292" cy="27.7599" r="0.469848" stroke="#4D4D4D" stroke-width="0.375"/>
<circle cx="53.005" cy="27.7599" r="0.469848" stroke="#4D4D4D" stroke-width="0.375"/>
<circle cx="64.2823" cy="27.7599" r="0.469848" stroke="#4D4D4D" stroke-width="0.375"/>
<circle cx="28.5714" cy="27.7599" r="0.469848" stroke="#4D4D4D" stroke-width="0.375"/>
<circle cx="49.2433" cy="27.7599" r="0.469848" stroke="#4D4D4D" stroke-width="0.375"/>
<circle cx="41.7277" cy="27.7599" r="0.469848" stroke="#4D4D4D" stroke-width="0.375"/>
<circle cx="6.01672" cy="27.7599" r="0.469848" stroke="#4D4D4D" stroke-width="0.375"/>
<circle cx="36.087" cy="27.7599" r="0.469848" stroke="#4D4D4D" stroke-width="0.375"/>
<circle cx="56.7589" cy="27.7599" r="0.469848" stroke="#4D4D4D" stroke-width="0.375"/>
<circle cx="9.77454" cy="42.795" r="0.469848" stroke="#4D4D4D" stroke-width="0.375"/>
<circle cx="17.2941" cy="42.795" r="0.469848" stroke="#4D4D4D" stroke-width="0.375"/>
<circle cx="13.5363" cy="42.795" r="0.469848" stroke="#4D4D4D" stroke-width="0.375"/>
<circle cx="41.7277" cy="42.795" r="0.469848" stroke="#4D4D4D" stroke-width="0.375"/>
<circle cx="36.087" cy="42.795" r="0.469848" stroke="#4D4D4D" stroke-width="0.375"/>
<circle cx="60.5206" cy="12.7247" r="0.469848" stroke="#4D4D4D" stroke-width="0.375"/>
<circle cx="9.77454" cy="12.7247" r="0.469848" stroke="#4D4D4D" stroke-width="0.375"/>
<circle cx="24.8136" cy="12.7247" r="0.469848" stroke="#4D4D4D" stroke-width="0.375"/>
<circle cx="17.2941" cy="12.7247" r="0.469848" stroke="#4D4D4D" stroke-width="0.375"/>
<circle cx="2.25891" cy="12.7247" r="0.469848" stroke="#4D4D4D" stroke-width="0.375"/>
<circle cx="53.005" cy="12.7247" r="0.469848" stroke="#4D4D4D" stroke-width="0.375"/>
<circle cx="64.2823" cy="12.7247" r="0.469848" stroke="#4D4D4D" stroke-width="0.375"/>
<circle cx="13.5363" cy="12.7247" r="0.469848" stroke="#4D4D4D" stroke-width="0.375"/>
<circle cx="21.0519" cy="12.7247" r="0.469848" stroke="#4D4D4D" stroke-width="0.375"/>
<circle cx="6.01672" cy="12.7247" r="0.469848" stroke="#4D4D4D" stroke-width="0.375"/>
<circle cx="9.77454" cy="50.3116" r="0.469848" stroke="#4D4D4D" stroke-width="0.375"/>
<circle cx="13.5363" cy="50.3116" r="0.469848" stroke="#4D4D4D" stroke-width="0.375"/>
<circle cx="60.5206" cy="20.2433" r="0.469848" stroke="#4D4D4D" stroke-width="0.375"/>
<circle cx="9.77454" cy="20.2433" r="0.469848" stroke="#4D4D4D" stroke-width="0.375"/>
<circle cx="45.4855" cy="20.2433" r="0.469848" stroke="#4D4D4D" stroke-width="0.375"/>
<circle cx="2.25891" cy="20.2433" r="0.469848" stroke="#4D4D4D" stroke-width="0.375"/>
<circle cx="32.3292" cy="20.2433" r="0.469848" stroke="#4D4D4D" stroke-width="0.375"/>
<circle cx="53.005" cy="20.2433" r="0.469848" stroke="#4D4D4D" stroke-width="0.375"/>
<circle cx="64.2823" cy="20.2433" r="0.469848" stroke="#4D4D4D" stroke-width="0.375"/>
<circle cx="13.5363" cy="20.2433" r="0.469848" stroke="#4D4D4D" stroke-width="0.375"/>
<circle cx="28.5714" cy="20.2433" r="0.469848" stroke="#4D4D4D" stroke-width="0.375"/>
<circle cx="49.2433" cy="20.2433" r="0.469848" stroke="#4D4D4D" stroke-width="0.375"/>
<circle cx="41.7277" cy="20.2433" r="0.469848" stroke="#4D4D4D" stroke-width="0.375"/>
<circle cx="6.01672" cy="20.2433" r="0.469848" stroke="#4D4D4D" stroke-width="0.375"/>
<circle cx="36.087" cy="20.2433" r="0.469848" stroke="#4D4D4D" stroke-width="0.375"/>
<circle cx="56.7589" cy="20.2433" r="0.469848" stroke="#4D4D4D" stroke-width="0.375"/>
<circle cx="9.77454" cy="35.2765" r="0.469848" stroke="#4D4D4D" stroke-width="0.375"/>
<circle cx="45.4855" cy="35.2765" r="0.469848" stroke="#4D4D4D" stroke-width="0.375"/>
<circle cx="32.3292" cy="35.2765" r="0.469848" stroke="#4D4D4D" stroke-width="0.375"/>
<circle cx="64.2823" cy="35.2765" r="0.469848" stroke="#4D4D4D" stroke-width="0.375"/>
<circle cx="13.5363" cy="35.2765" r="0.469848" stroke="#4D4D4D" stroke-width="0.375"/>
<circle cx="28.5714" cy="35.2765" r="0.469848" stroke="#4D4D4D" stroke-width="0.375"/>
<circle cx="41.7277" cy="35.2765" r="0.469848" stroke="#4D4D4D" stroke-width="0.375"/>
<circle cx="6.01672" cy="35.2765" r="0.469848" stroke="#4D4D4D" stroke-width="0.375"/>
<circle cx="36.087" cy="35.2765" r="0.469848" stroke="#4D4D4D" stroke-width="0.375"/>
<circle cx="56.7589" cy="35.2765" r="0.469848" stroke="#4D4D4D" stroke-width="0.375"/>
<circle cx="62.3995" cy="31.5197" r="0.469848" stroke="#4D4D4D" stroke-width="0.375"/>
<circle cx="11.6573" cy="31.5197" r="0.469848" stroke="#4D4D4D" stroke-width="0.375"/>
<circle cx="26.6925" cy="31.5197" r="0.469848" stroke="#4D4D4D" stroke-width="0.375"/>
<circle cx="47.3644" cy="31.5197" r="0.469848" stroke="#4D4D4D" stroke-width="0.375"/>
<circle cx="39.8448" cy="31.5197" r="0.469848" stroke="#4D4D4D" stroke-width="0.375"/>
<circle cx="4.13782" cy="31.5197" r="0.469848" stroke="#4D4D4D" stroke-width="0.375"/>
<circle cx="34.2081" cy="31.5197" r="0.469848" stroke="#4D4D4D" stroke-width="0.375"/>
<circle cx="54.8839" cy="31.5197" r="0.469848" stroke="#4D4D4D" stroke-width="0.375"/>
<circle cx="0.380004" cy="31.5197" r="0.469848" stroke="#4D4D4D" stroke-width="0.375"/>
<circle cx="30.4542" cy="31.5197" r="0.469848" stroke="#4D4D4D" stroke-width="0.375"/>
<circle cx="43.6105" cy="31.5197" r="0.469848" stroke="#4D4D4D" stroke-width="0.375"/>
<circle cx="7.89563" cy="31.5197" r="0.469848" stroke="#4D4D4D" stroke-width="0.375"/>
<circle cx="37.9698" cy="31.5197" r="0.469848" stroke="#4D4D4D" stroke-width="0.375"/>
<circle cx="58.6417" cy="31.5197" r="0.469848" stroke="#4D4D4D" stroke-width="0.375"/>
<circle cx="11.6573" cy="46.5538" r="0.469848" stroke="#4D4D4D" stroke-width="0.375"/>
<circle cx="39.8448" cy="46.5538" r="0.469848" stroke="#4D4D4D" stroke-width="0.375"/>
<circle cx="15.4152" cy="46.5538" r="0.469848" stroke="#4D4D4D" stroke-width="0.375"/>
<circle cx="37.9698" cy="46.5538" r="0.469848" stroke="#4D4D4D" stroke-width="0.375"/>
<circle cx="62.3995" cy="16.4835" r="0.469848" stroke="#4D4D4D" stroke-width="0.375"/>
<circle cx="11.6573" cy="16.4835" r="0.469848" stroke="#4D4D4D" stroke-width="0.375"/>
<circle cx="26.6925" cy="16.4835" r="0.469848" stroke="#4D4D4D" stroke-width="0.375"/>
<circle cx="47.3644" cy="16.4835" r="0.469848" stroke="#4D4D4D" stroke-width="0.375"/>
<circle cx="19.1769" cy="16.4835" r="0.469848" stroke="#4D4D4D" stroke-width="0.375"/>
<circle cx="39.8448" cy="16.4835" r="0.469848" stroke="#4D4D4D" stroke-width="0.375"/>
<circle cx="4.13782" cy="16.4835" r="0.469848" stroke="#4D4D4D" stroke-width="0.375"/>
<circle cx="54.8839" cy="16.4835" r="0.469848" stroke="#4D4D4D" stroke-width="0.375"/>
<circle cx="15.4152" cy="16.4835" r="0.469848" stroke="#4D4D4D" stroke-width="0.375"/>
<circle cx="0.380004" cy="16.4835" r="0.469848" stroke="#4D4D4D" stroke-width="0.375"/>
<circle cx="51.1183" cy="16.4835" r="0.469848" stroke="#4D4D4D" stroke-width="0.375"/>
<circle cx="43.6105" cy="16.4835" r="0.469848" stroke="#4D4D4D" stroke-width="0.375"/>
<circle cx="7.89563" cy="16.4835" r="0.469848" stroke="#4D4D4D" stroke-width="0.375"/>
<circle cx="37.9698" cy="16.4835" r="0.469848" stroke="#4D4D4D" stroke-width="0.375"/>
<circle cx="58.6417" cy="16.4835" r="0.469848" stroke="#4D4D4D" stroke-width="0.375"/>
<circle cx="7.89563" cy="54.0714" r="0.469848" stroke="#4D4D4D" stroke-width="0.375"/>
<circle cx="62.3995" cy="24.0011" r="0.469848" stroke="#4D4D4D" stroke-width="0.375"/>
<circle cx="47.3644" cy="24.0011" r="0.469848" stroke="#4D4D4D" stroke-width="0.375"/>
<circle cx="39.8448" cy="24.0011" r="0.469848" stroke="#4D4D4D" stroke-width="0.375"/>
<circle cx="4.13782" cy="24.0011" r="0.469848" stroke="#4D4D4D" stroke-width="0.375"/>
<circle cx="34.2081" cy="24.0011" r="0.469848" stroke="#4D4D4D" stroke-width="0.375"/>
<circle cx="54.8839" cy="24.0011" r="0.469848" stroke="#4D4D4D" stroke-width="0.375"/>
<circle cx="0.380004" cy="24.0011" r="0.469848" stroke="#4D4D4D" stroke-width="0.375"/>
<circle cx="30.4542" cy="24.0011" r="0.469848" stroke="#4D4D4D" stroke-width="0.375"/>
<circle cx="51.1183" cy="24.0011" r="0.469848" stroke="#4D4D4D" stroke-width="0.375"/>
<circle cx="43.6105" cy="24.0011" r="0.469848" stroke="#4D4D4D" stroke-width="0.375"/>
<circle cx="7.89563" cy="24.0011" r="0.469848" stroke="#4D4D4D" stroke-width="0.375"/>
<circle cx="9.80969" cy="24.0011" r="0.469848" stroke="#4D4D4D" stroke-width="0.375"/>
<circle cx="37.9698" cy="24.0011" r="0.469848" stroke="#4D4D4D" stroke-width="0.375"/>
<circle cx="58.6417" cy="24.0011" r="0.469848" stroke="#4D4D4D" stroke-width="0.375"/>
<circle cx="11.6573" cy="39.0353" r="0.469848" stroke="#4D4D4D" stroke-width="0.375"/>
<circle cx="19.1769" cy="39.0353" r="0.469848" stroke="#4D4D4D" stroke-width="0.375"/>
<circle cx="39.8448" cy="39.0353" r="0.469848" stroke="#4D4D4D" stroke-width="0.375"/>
<circle cx="15.4152" cy="39.0353" r="0.469848" stroke="#4D4D4D" stroke-width="0.375"/>
<circle cx="43.6105" cy="39.0353" r="0.469848" stroke="#4D4D4D" stroke-width="0.375"/>
<circle cx="7.89563" cy="39.0353" r="0.469848" stroke="#4D4D4D" stroke-width="0.375"/>
<circle cx="37.9698" cy="39.0353" r="0.469848" stroke="#4D4D4D" stroke-width="0.375"/>
<circle cx="62.3995" cy="27.7599" r="0.469848" stroke="#4D4D4D" stroke-width="0.375"/>
<circle cx="47.3644" cy="27.7599" r="0.469848" stroke="#4D4D4D" stroke-width="0.375"/>
<circle cx="39.8448" cy="27.7599" r="0.469848" stroke="#4D4D4D" stroke-width="0.375"/>
<circle cx="4.13782" cy="27.7599" r="0.469848" stroke="#4D4D4D" stroke-width="0.375"/>
<circle cx="34.2081" cy="27.7599" r="0.469848" stroke="#4D4D4D" stroke-width="0.375"/>
<circle cx="54.8839" cy="27.7599" r="0.469848" stroke="#4D4D4D" stroke-width="0.375"/>
<circle cx="0.380004" cy="27.7599" r="0.469848" stroke="#4D4D4D" stroke-width="0.375"/>
<circle cx="30.4542" cy="27.7599" r="0.469848" stroke="#4D4D4D" stroke-width="0.375"/>
<circle cx="51.1183" cy="27.7599" r="0.469848" stroke="#4D4D4D" stroke-width="0.375"/>
<circle cx="43.6105" cy="27.7599" r="0.469848" stroke="#4D4D4D" stroke-width="0.375"/>
<circle cx="37.9698" cy="27.7599" r="0.469848" stroke="#4D4D4D" stroke-width="0.375"/>
<circle cx="58.6417" cy="27.7599" r="0.469848" stroke="#4D4D4D" stroke-width="0.375"/>
<circle cx="11.6573" cy="42.795" r="0.469848" stroke="#4D4D4D" stroke-width="0.375"/>
<circle cx="47.3488" cy="42.795" r="0.469848" stroke="#4D4D4D" stroke-width="0.375"/>
<circle cx="19.1769" cy="42.795" r="0.469848" stroke="#4D4D4D" stroke-width="0.375"/>
<circle cx="39.8448" cy="42.795" r="0.469848" stroke="#4D4D4D" stroke-width="0.375"/>
<circle cx="15.4152" cy="42.795" r="0.469848" stroke="#4D4D4D" stroke-width="0.375"/>
<circle cx="43.6105" cy="42.795" r="0.469848" stroke="#4D4D4D" stroke-width="0.375"/>
<circle cx="37.9698" cy="42.795" r="0.469848" stroke="#4D4D4D" stroke-width="0.375"/>
<circle cx="62.3995" cy="12.7247" r="0.469848" stroke="#4D4D4D" stroke-width="0.375"/>
<circle cx="11.6573" cy="12.7247" r="0.469848" stroke="#4D4D4D" stroke-width="0.375"/>
<circle cx="19.1769" cy="12.7247" r="0.469848" stroke="#4D4D4D" stroke-width="0.375"/>
<circle cx="4.13782" cy="12.7247" r="0.469848" stroke="#4D4D4D" stroke-width="0.375"/>
<circle cx="15.4152" cy="12.7247" r="0.469848" stroke="#4D4D4D" stroke-width="0.375"/>
<circle cx="0.380004" cy="12.7247" r="0.469848" stroke="#4D4D4D" stroke-width="0.375"/>
<circle cx="51.1183" cy="12.7247" r="0.469848" stroke="#4D4D4D" stroke-width="0.375"/>
<circle cx="22.9308" cy="12.7247" r="0.469848" stroke="#4D4D4D" stroke-width="0.375"/>
<circle cx="11.6573" cy="50.3116" r="0.469848" stroke="#4D4D4D" stroke-width="0.375"/>
<circle cx="62.3995" cy="20.2433" r="0.469848" stroke="#4D4D4D" stroke-width="0.375"/>
<circle cx="11.6573" cy="20.2433" r="0.469848" stroke="#4D4D4D" stroke-width="0.375"/>
<circle cx="47.3644" cy="20.2433" r="0.469848" stroke="#4D4D4D" stroke-width="0.375"/>
<circle cx="39.8448" cy="20.2433" r="0.469848" stroke="#4D4D4D" stroke-width="0.375"/>
<circle cx="4.13782" cy="20.2433" r="0.469848" stroke="#4D4D4D" stroke-width="0.375"/>
<circle cx="34.2081" cy="20.2433" r="0.469848" stroke="#4D4D4D" stroke-width="0.375"/>
<circle cx="54.8839" cy="20.2433" r="0.469848" stroke="#4D4D4D" stroke-width="0.375"/>
<circle cx="0.380004" cy="20.2433" r="0.469848" stroke="#4D4D4D" stroke-width="0.375"/>
<circle cx="30.4542" cy="20.2433" r="0.469848" stroke="#4D4D4D" stroke-width="0.375"/>
<circle cx="51.1183" cy="20.2433" r="0.469848" stroke="#4D4D4D" stroke-width="0.375"/>
<circle cx="43.6105" cy="20.2433" r="0.469848" stroke="#4D4D4D" stroke-width="0.375"/>
<circle cx="7.89563" cy="20.2433" r="0.469848" stroke="#4D4D4D" stroke-width="0.375"/>
<circle cx="37.9698" cy="20.2433" r="0.469848" stroke="#4D4D4D" stroke-width="0.375"/>
<circle cx="58.6417" cy="20.2433" r="0.469848" stroke="#4D4D4D" stroke-width="0.375"/>
<circle cx="11.6573" cy="35.2765" r="0.469848" stroke="#4D4D4D" stroke-width="0.375"/>
<circle cx="47.3644" cy="35.2765" r="0.469848" stroke="#4D4D4D" stroke-width="0.375"/>
<circle cx="39.8448" cy="35.2765" r="0.469848" stroke="#4D4D4D" stroke-width="0.375"/>
<circle cx="34.2081" cy="35.2765" r="0.469848" stroke="#4D4D4D" stroke-width="0.375"/>
<circle cx="34.2081" cy="37.0978" r="0.469848" stroke="#4D4D4D" stroke-width="0.375"/>
<circle cx="30.4542" cy="35.2765" r="0.469848" stroke="#4D4D4D" stroke-width="0.375"/>
<circle cx="43.6105" cy="35.2765" r="0.469848" stroke="#4D4D4D" stroke-width="0.375"/>
<circle cx="7.89563" cy="35.2765" r="0.469848" stroke="#4D4D4D" stroke-width="0.375"/>
<circle cx="37.9698" cy="35.2765" r="0.469848" stroke="#4D4D4D" stroke-width="0.375"/>
<path d="M21 43H37.5" stroke="#F4F4F4" stroke-width="5"/>
<path d="M21 43L21 21" stroke="#F4F4F4" stroke-width="5" stroke-linecap="round"/>
<path d="M21 32L37.5 32" stroke="#F4F4F4" stroke-width="5"/>
<path d="M21 21H35.5" stroke="#F4F4F4" stroke-width="5"/>
<mask id="path-407-inside-1_13231_251185" fill="white">
<path d="M37 29C39.1217 29 41.1566 29.8429 42.6569 31.3431C44.1571 32.8434 45 34.8783 45 37C45 39.1217 44.1571 41.1566 42.6569 42.6568C41.1566 44.1571 39.1217 45 37 45L37 39.9997C37.7956 39.9997 38.5585 39.6836 39.1211 39.1211C39.6836 38.5585 39.9997 37.7956 39.9997 37C39.9997 36.2044 39.6836 35.4415 39.1211 34.8789C38.5585 34.3164 37.7956 34.0003 37 34.0003V29Z"/>
</mask>
<path d="M37 29C39.1217 29 41.1566 29.8429 42.6569 31.3431C44.1571 32.8434 45 34.8783 45 37C45 39.1217 44.1571 41.1566 42.6569 42.6568C41.1566 44.1571 39.1217 45 37 45L37 39.9997C37.7956 39.9997 38.5585 39.6836 39.1211 39.1211C39.6836 38.5585 39.9997 37.7956 39.9997 37C39.9997 36.2044 39.6836 35.4415 39.1211 34.8789C38.5585 34.3164 37.7956 34.0003 37 34.0003V29Z" fill="#ECECEC" stroke="#F4F4F4" stroke-width="10" mask="url(#path-407-inside-1_13231_251185)"/>
<mask id="path-408-inside-2_13231_251185" fill="white">
<path d="M35.5 18.5C37.6217 18.5 39.6566 19.3429 41.1569 20.8431C42.6571 22.3434 43.5 24.3783 43.5 26.5C43.5 28.6217 42.6571 30.6566 41.1569 32.1568C39.6566 33.6571 37.6217 34.5 35.5 34.5L35.5 29.4997C36.2956 29.4997 37.0585 29.1836 37.6211 28.6211C38.1836 28.0585 38.4997 27.2956 38.4997 26.5C38.4997 25.7044 38.1836 24.9415 37.6211 24.3789C37.0585 23.8164 36.2956 23.5003 35.5 23.5003V18.5Z"/>
</mask>
<path d="M35.5 18.5C37.6217 18.5 39.6566 19.3429 41.1569 20.8431C42.6571 22.3434 43.5 24.3783 43.5 26.5C43.5 28.6217 42.6571 30.6566 41.1569 32.1568C39.6566 33.6571 37.6217 34.5 35.5 34.5L35.5 29.4997C36.2956 29.4997 37.0585 29.1836 37.6211 28.6211C38.1836 28.0585 38.4997 27.2956 38.4997 26.5C38.4997 25.7044 38.1836 24.9415 37.6211 24.3789C37.0585 23.8164 36.2956 23.5003 35.5 23.5003V18.5Z" fill="#ECECEC" stroke="#F4F4F4" stroke-width="10" mask="url(#path-408-inside-2_13231_251185)"/>
<circle cx="48.5" cy="15" r="5.5" stroke="#EC007C" stroke-width="3" stroke-linecap="round"/>
<rect x="47" y="13.5" width="3" height="3" rx="1.5" fill="#EC007C"/>
</g>
<defs>
<clipPath id="clip0_13231_251185">
<rect width="64" height="64" rx="20" fill="white"/>
</clipPath>
</defs>
</svg>
